<svg width="12" height="12" viewBox="0 0 12 12" fill="none" xmlns="http://www.w3.org/2000/svg">
<g clip-path="url(#clip0_1_8)">
<path d="M6 0.375C2.8935 0.375 0.375 2.8935 0.375 6C0.375 9.1065 2.8935 11.625 6 11.625C9.1065 11.625 11.625 9.1065 11.625 6C11.625 2.8935 9.1065 0.375 6 0.375ZM8.45663 6.55369C7.40775 7.42125 5.81587 7.22719 4.90069 6.12075C3.9855 5.01413 4.09387 3.414 5.14275 2.54644C6.19162 1.67925 7.7835 1.87294 8.69869 2.97975C9.61388 4.08656 9.50531 5.6865 8.45663 6.55369Z" fill="black"/>
<path d="M8.00708 6.17271C7.76845 6.33083 7.52897 6.43097 7.28864 6.47315C7.04867 6.51357 6.82728 6.49758 6.62448 6.42518C6.42203 6.35103 6.25656 6.22045 6.12805 6.03344L6.82476 5.57179C6.88153 5.64821 6.95383 5.70065 7.04167 5.72911C7.12988 5.7558 7.22532 5.7587 7.32798 5.73781C7.43065 5.71691 7.53259 5.67293 7.63379 5.60587C7.73925 5.53599 7.82022 5.45574 7.87668 5.36511C7.93314 5.27449 7.96257 5.18124 7.96497 5.08538C7.96738 4.98953 7.94023 4.89881 7.88352 4.81323C7.82611 4.72659 7.75086 4.66623 7.65775 4.63214C7.565 4.59629 7.46075 4.58934 7.345 4.61131C7.23031 4.63257 7.11118 4.68414 6.98761 4.76602L6.6824 4.96826L6.34846 4.46429L6.65367 4.26205C6.75807 4.19288 6.83832 4.11386 6.89441 4.02499C6.95157 3.93542 6.98152 3.84412 6.98426 3.75108C6.9863 3.65698 6.95896 3.56714 6.90226 3.48157C6.84835 3.40021 6.78139 3.34195 6.70137 3.30679C6.62171 3.26987 6.53518 3.25727 6.44177 3.26899C6.34942 3.28001 6.2569 3.31622 6.16422 3.37764C6.07048 3.43975 5.99592 3.51348 5.94056 3.59882C5.88449 3.6831 5.85332 3.77141 5.84706 3.86375C5.84079 3.95609 5.86336 4.04452 5.91477 4.12905L5.25161 4.56846C5.1309 4.37934 5.07548 4.17887 5.08537 3.96706C5.09526 3.75526 5.16202 3.55061 5.28566 3.35314C5.40966 3.1539 5.58352 2.98017 5.80723 2.83193C6.03307 2.68228 6.25764 2.59202 6.48093 2.56114C6.70422 2.53025 6.90859 2.55295 7.09405 2.62924C7.27987 2.70377 7.42896 2.82696 7.5413 2.99883C7.66278 3.17985 7.70625 3.36922 7.6717 3.56696C7.63823 3.76399 7.54072 3.93959 7.37919 4.09376L7.39599 4.11911C7.65705 3.99022 7.89524 3.95175 8.11056 4.00369C8.32624 4.05387 8.5004 4.18021 8.63305 4.38271C8.75663 4.5669 8.8117 4.76684 8.79824 4.98253C8.78586 5.19751 8.71216 5.40903 8.57714 5.61709C8.44212 5.82515 8.2521 6.01035 8.00708 6.17271Z" fill="black"/>
</g>
<defs>
<clipPath id="clip0_1_8">
<rect width="12" height="12" fill="white"/>
</clipPath>
</defs>
</svg>
